<?xml version="1.0" standalone="no"?>
<!DOCTYPE svg PUBLIC "-//W3C//DTD SVG 20010904//EN"
 "http://www.w3.org/TR/2001/REC-SVG-20010904/DTD/svg10.dtd">
<svg version="1.0" xmlns="http://www.w3.org/2000/svg"
 width="700.000000pt" height="700.000000pt" viewBox="0 0 700.000000 700.000000"
 preserveAspectRatio="xMidYMid meet">
<metadata>
Created by potrace 1.14, written by Peter Selinger 2001-2017
</metadata>
<g transform="translate(0.000000,700.000000) scale(0.100000,-0.100000)"
fill="#000000" stroke="none">
<path d="M4051 6009 c0 -85 -4 -108 -25 -154 -31 -69 -94 -129 -161 -154 -47
-18 -76 -20 -277 -19 -198 1 -437 -7 -538 -17 -19 -2 -66 -6 -105 -9 -38 -4
-79 -8 -90 -10 -11 -2 -45 -7 -76 -10 -31 -4 -67 -9 -80 -11 -13 -3 -44 -8
-69 -11 -56 -7 -402 -80 -450 -94 -19 -6 -44 -13 -56 -16 -59 -12 -290 -87
-439 -142 -460 -171 -1015 -495 -1334 -779 l-45 -40 123 -144 c132 -155 147
-170 159 -154 10 16 144 121 248 197 180 131 351 236 569 348 250 129 591 257
885 334 74 19 149 37 165 40 17 3 41 7 55 11 61 14 295 52 372 60 29 4 68 8
86 11 110 15 220 19 497 19 272 0 548 -9 564 -19 3 -2 34 -7 69 -10 93 -9 299
-43 431 -71 532 -115 1008 -312 1454 -602 141 -91 289 -199 383 -280 l62 -52
23 27 c120 136 234 276 234 287 0 19 -214 188 -387 306 l-97 65 31 29 c84 79
157 209 187 331 20 79 24 122 22 244 l-1 65 -205 0 -205 0 0 -85 c0 -146 -43
-241 -137 -300 -77 -49 -95 -48 -216 9 -134 63 -293 131 -306 131 -17 0 -13
13 15 51 61 81 116 217 129 319 5 41 9 161 6 216 -1 20 -5 21 -205 20 l-204 0
-4 -105 c-3 -92 -7 -114 -31 -163 -35 -71 -97 -124 -172 -147 -53 -17 -57 -17
-147 6 -51 13 -154 34 -228 49 -74 14 -140 27 -147 29 -8 3 -3 22 17 62 41 85
62 183 66 316 l4 117 -210 0 -209 0 0 -101z"/>
<path d="M3377 4864 c-1 -1 -66 -5 -144 -8 -78 -4 -150 -9 -160 -10 -10 -2
-47 -7 -83 -11 -100 -10 -195 -23 -220 -30 -8 -2 -35 -7 -60 -10 -25 -4 -67
-11 -95 -16 -27 -6 -61 -12 -75 -15 -134 -25 -453 -124 -630 -193 -793 -314
-1521 -946 -1880 -1634 l-30 -57 33 -68 c60 -122 146 -255 259 -404 227 -299
548 -606 858 -820 167 -115 469 -284 620 -347 30 -13 73 -31 95 -41 137 -61
494 -174 645 -204 14 -3 61 -12 104 -21 104 -20 122 -23 236 -40 25 -4 57 -9
72 -11 33 -5 81 -10 208 -21 182 -16 848 -7 880 12 3 1 37 6 75 9 39 4 77 9
85 11 8 2 33 6 55 9 22 4 51 8 65 11 14 2 36 7 50 9 574 100 1163 358 1646
722 408 308 810 770 989 1135 l27 55 -37 75 c-21 40 -68 122 -105 181 -201
316 -466 604 -835 907 -60 49 -241 172 -362 247 -336 207 -759 379 -1158 469
-223 51 -493 89 -710 101 -109 6 -413 12 -418 8z"/>
</g>
</svg>
